# xmcd
#
# Track frame offsets:
#	150
#	23195
#	51740
#	89037
#
# Disc length: 1617 seconds
#
# Revision: 1
# Processed by: cddbd v1.5.1PL0 Copyright (c) Steve Scherf et al.
# Submitted via: CDex 1.50Beta5
#
DISCID=36064f04
DTITLE=武田真治 - Blow Up
DYEAR=1995
DGENRE=
TTITLE0=Blow Up
TTITLE1=Blow Up
TTITLE2=Blow Up
TTITLE3=Blow Up
EXTD=
EXTT0=
EXTT1=
EXTT2=
EXTT3=
PLAYORDER=
